<?xml version="1.0" standalone="no"?>
<!DOCTYPE svg PUBLIC "-//W3C//DTD SVG 20010904//EN"
 "http://www.w3.org/TR/2001/REC-SVG-20010904/DTD/svg10.dtd">
<svg version="1.0" xmlns="http://www.w3.org/2000/svg"
 width="800.000000pt" height="800.000000pt" viewBox="0 0 800.000000 800.000000"
 preserveAspectRatio="xMidYMid meet">
<metadata>
Created by potrace 1.14, written by Peter Selinger 2001-2017
</metadata>
<g transform="translate(0.000000,800.000000) scale(0.100000,-0.100000)"
fill="#000000" stroke="none">
<path d="M3927 6752 c-124 -157 -215 -280 -221 -300 -11 -34 -1 -52 104 -188
54 -71 97 -131 94 -135 -2 -3 -19 -9 -38 -12 -56 -9 -159 -64 -217 -116 -114
-101 -176 -233 -182 -385 -7 -154 44 -286 153 -397 36 -37 74 -71 85 -77 11
-6 18 -12 15 -14 -28 -22 -183 -129 -198 -137 -32 -17 -100 -20 -146 -6 -22 7
-99 32 -171 55 -140 45 -357 112 -582 180 -94 28 -400 108 -443 115 -19 3 -51
10 -70 15 -36 9 -138 27 -200 35 -19 3 -44 7 -55 9 -95 22 -405 26 -535 7
-328 -47 -584 -214 -733 -476 -89 -159 -125 -355 -103 -560 13 -123 16 -143
51 -269 67 -245 182 -495 391 -851 130 -222 244 -424 244 -434 0 -3 10 -24 21
-46 60 -111 166 -433 183 -555 10 -73 18 -143 19 -180 l2 -35 1055 3 c2539 7
4069 11 4116 11 l51 1 7 87 c9 119 12 140 41 254 69 275 145 444 379 849 78
135 157 274 175 309 18 34 40 77 50 95 9 17 38 81 65 141 26 61 51 119 56 130
15 34 79 232 85 262 2 15 9 43 14 61 5 18 10 35 10 37 0 3 2 18 5 33 9 47 19
165 19 222 1 319 -142 587 -408 764 -108 72 -266 134 -385 152 -14 2 -52 8
-85 13 -62 9 -395 8 -411 -1 -5 -3 -38 -8 -74 -12 -242 -22 -687 -140 -1335
-353 -151 -49 -245 -75 -273 -75 -50 1 -95 22 -183 87 -34 25 -70 50 -78 55
-14 9 -12 13 14 32 215 162 283 435 168 683 -27 60 -60 104 -117 158 -50 47
-171 117 -204 117 -9 1 -30 6 -45 13 -27 12 -28 13 -10 32 10 11 38 47 63 80
25 33 48 62 51 65 21 18 79 119 79 137 0 12 -17 43 -37 70 -158 208 -235 301
-253 306 -16 4 -31 -8 -73 -61z m2648 -1646 c216 -30 367 -109 474 -251 96
-127 131 -246 126 -425 -9 -283 -125 -558 -503 -1195 -87 -147 -227 -363 -241
-375 -4 -3 -28 -35 -54 -72 -62 -88 -194 -226 -270 -284 -229 -172 -450 -175
-563 -9 -45 67 -61 187 -36 277 4 15 93 116 207 233 110 114 206 218 213 231
19 37 11 64 -70 234 -41 85 -96 202 -123 260 -57 123 -62 130 -84 130 -10 0
-118 -102 -242 -226 -365 -368 -349 -350 -349 -397 0 -15 39 -118 86 -229 l85
-202 -12 -46 c-44 -160 -152 -303 -267 -357 -277 -129 -557 163 -599 622 -19
219 4 452 68 688 39 143 58 199 135 396 84 213 105 294 108 413 1 26 6 51 11
56 27 24 536 240 740 314 262 95 549 176 686 193 30 4 56 8 59 10 3 2 44 7 90
10 47 4 86 8 87 9 5 4 193 -2 238 -8z m-4837 -11 c48 -4 89 -8 92 -10 3 -1 28
-6 55 -9 144 -20 424 -94 626 -167 63 -22 125 -44 139 -49 27 -8 116 -43 165
-64 17 -8 73 -30 125 -51 52 -21 113 -46 135 -56 22 -10 89 -40 150 -67 l109
-48 2 -50 c7 -139 52 -302 134 -479 16 -33 99 -284 131 -390 4 -16 15 -71 24
-120 8 -50 18 -102 21 -115 11 -46 13 -394 3 -450 -43 -243 -110 -391 -226
-500 -113 -106 -242 -131 -365 -71 -34 17 -74 41 -88 53 -75 68 -159 209 -181
305 -11 48 -11 49 71 243 45 107 84 207 87 223 3 17 -3 39 -13 55 -10 15 -142
152 -294 305 -210 211 -281 276 -294 271 -16 -6 -51 -74 -168 -329 -33 -71
-71 -153 -84 -182 -30 -64 -30 -102 -3 -137 12 -15 107 -115 213 -222 105
-108 195 -208 199 -222 4 -15 8 -62 8 -105 -1 -257 -237 -369 -495 -235 -211
111 -405 340 -696 823 -295 489 -438 798 -484 1040 -21 113 -15 280 13 365
114 337 405 483 889 445z"/>
<path d="M1795 1620 l-400 -5 0 -212 c0 -135 4 -213 10 -214 24 -3 5181 7
5207 10 4 1 7 98 8 217 l0 216 -2213 -4 c-1216 -2 -2392 -5 -2612 -8z"/>
</g>
</svg>
